<?xml version="1.0" encoding="UTF-8"?>
<svg version="1.1" xmlns="http://www.w3.org/2000/svg" width="481" height="519">
<path d="M0 0 C3.33234574 1.45241736 5.54225606 3.2850086 8.109375 5.84375 C9.24052734 6.97103516 9.24052734 6.97103516 10.39453125 8.12109375 C11.17183594 8.90613281 11.94914062 9.69117187 12.75 10.5 C13.54277344 11.28503906 14.33554688 12.07007812 15.15234375 12.87890625 C16.27576172 14.00619141 16.27576172 14.00619141 17.421875 15.15625 C18.10862305 15.84525391 18.79537109 16.53425781 19.50292969 17.24414062 C21 19 21 19 21 21 C21.66 21 22.32 21 23 21 C24.51984883 22.67535459 25.96706453 24.41705622 27.375 26.1875 C28.14585937 27.15042969 28.91671875 28.11335938 29.7109375 29.10546875 C30.46632813 30.06066406 31.22171875 31.01585938 32 32 C32.75539063 32.88300781 33.51078125 33.76601562 34.2890625 34.67578125 C36 37 36 37 36 40 C36.66 40 37.32 40 38 40 C38.96345444 41.87237371 39.92053102 43.7480299 40.875 45.625 C41.40867187 46.66914063 41.94234375 47.71328125 42.4921875 48.7890625 C50.69730923 66.26214557 47.50302878 87.31820332 41.21875 104.95703125 C37.32301063 114.68389333 32.51855731 123.99577485 27.78808594 133.33496094 C25.221794 138.44469948 22.96349712 143.6262184 21 149 C24.60138937 147.95135991 24.60138937 147.95135991 27.05078125 145.3046875 C27.36402344 144.54414063 27.67726563 143.78359375 28 143 C29.00173656 141.33927992 30.00469961 139.67925002 31.02050781 138.02709961 C43.41567018 117.8240222 50.87433094 97.47377466 54 74 C55.8828125 74.30859375 55.8828125 74.30859375 58 75 C70.45238485 95.33889525 75.08120328 121.64382959 75.5 145.125 C75.54592285 146.52770142 75.54592285 146.52770142 75.59277344 147.95874023 C75.59520065 154.76039511 74.07193546 160.44649814 70 166 C67.90820312 167.14501953 67.90820312 167.14501953 66 168 C64.73195434 170.0335948 64.73195434 170.0335948 64 172 C63.34 172 62.68 172 62 172 C61.74476563 172.60231445 61.48953125 173.20462891 61.2265625 173.82519531 C59.85860749 176.25070153 58.66203281 177.24219383 56.375 178.796875 C55.66859375 179.28027344 54.9621875 179.76367188 54.234375 180.26171875 C53.49703125 180.75285156 52.7596875 181.24398437 52 181.75 C51.26265625 182.25660156 50.5253125 182.76320313 49.765625 183.28515625 C44.27847035 187 44.27847035 187 42 187 C42 187.66 42 188.32 42 189 C40.54462432 189.83848804 39.08559627 190.67063934 37.625 191.5 C36.81289063 191.9640625 36.00078125 192.428125 35.1640625 192.90625 C33 194 33 194 31 194 C31 194.66 31 195.32 31 196 C29.70766393 197.37310707 28.37562854 198.71034824 27 200 C37.10713302 198.019827 46.1194749 193.50337649 54.28515625 187.25 C56 186 56 186 58 186 C58 185.34 58 184.68 58 184 C59.6796875 182.2734375 59.6796875 182.2734375 61.875 180.375 C62.59429687 179.74335938 63.31359375 179.11171875 64.0546875 178.4609375 C66 177 66 177 68 177 C68 176.34 68 175.68 68 175 C68.66 175 69.32 175 70 175 C70 174.34 70 173.68 70 173 C70.99 173 71.98 173 73 173 C73.21984785 179.0458159 72.59630258 184.17474922 71 190 C70.68160156 191.17691406 70.36320313 192.35382813 70.03515625 193.56640625 C65.77530548 208.55712178 58.97196871 222.91778065 49 235 C48.34 235 47.68 235 47 235 C47 235.66 47 236.32 47 237 C46.34 237 45.68 237 45 237 C45 237.66 45 238.32 45 239 C39.51960873 244.14752585 34.20476254 246.92089814 26.67578125 247.14453125 C20.43372072 246.80736886 15.17235883 245.67070627 10 242 C9.18417851 245.55856944 8.88605702 248.81375648 8.91821289 252.46118164 C8.92800926 254.06292992 8.92800926 254.06292992 8.93800354 255.69703674 C8.94943893 256.83986618 8.96087433 257.98269562 8.97265625 259.16015625 C8.98529784 261.58658714 8.99765914 264.01301951 9.00976562 266.43945312 C9.03462854 270.26021927 9.06266038 274.08090893 9.09594727 277.90161133 C9.12609295 281.5919647 9.14390312 285.28221928 9.16015625 288.97265625 C9.18034569 290.68993675 9.18034569 290.68993675 9.20094299 292.44190979 C9.20432175 293.50658981 9.2077005 294.57126984 9.21118164 295.66821289 C9.21863907 296.60355362 9.2260965 297.53889435 9.23377991 298.50257874 C8.98519403 301.15816903 8.40538978 302.74988032 7 305 C4.30412197 307.09679403 2.907056 306.99510821 -0.5625 306.8125 C-5.0171814 305.75957531 -5.0171814 305.75957531 -7 303 C-7.39872742 300.28547668 -7.39872742 300.28547668 -7.43237305 296.96801758 C-7.45216721 295.72695755 -7.47196136 294.48589752 -7.49235535 293.20722961 C-7.49912509 291.85299837 -7.50557196 290.49876547 -7.51171875 289.14453125 C-7.52856405 287.75874739 -7.54671409 286.37297882 -7.56611633 284.98722839 C-7.61363938 281.34258808 -7.64343344 277.69800977 -7.66955566 274.05316162 C-7.69934983 270.33284254 -7.745884 266.61273716 -7.79101562 262.89257812 C-7.87707478 255.59515806 -7.94440803 248.2977225 -8 241 C-8.66 241 -9.32 241 -10 241 C-10 241.66 -10 242.32 -10 243 C-16.32809709 246.93368198 -23.81132873 247.87097957 -31.125 246.4375 C-36.41644455 244.83038771 -42.45922331 241.68918168 -45.2578125 236.8046875 C-45.50273437 236.20914063 -45.74765625 235.61359375 -46 235 C-46.66 235 -47.32 235 -48 235 C-49.70183005 232.90961053 -51.26969362 230.82888819 -52.8125 228.625 C-53.26463867 227.98087158 -53.71677734 227.33674316 -54.18261719 226.6730957 C-66.03848791 209.50776374 -71.89996421 188.71101868 -73 168 C-71.515 167.01 -71.515 167.01 -70 166 C-70.20496094 165.45730469 -70.40992188 164.91460937 -70.62109375 164.35546875 C-71.02521484 163.28232422 -71.02521484 163.28232422 -71.4375 162.1875 C-71.83775391 161.12595703 -71.83775391 161.12595703 -72.24609375 160.04296875 C-79.44453818 140.53630327 -69.58363319 111.86478715 -63 93 C-62.66782471 92.02474365 -62.33564941 91.0494873 -61.9934082 90.04467773 C-61.6655835 89.14305908 -61.33775879 88.24144043 -61 87.3125 C-60.566875 86.10013672 -60.566875 86.10013672 -60.125 84.86328125 C-59 83 -59 83 -56.875 82.23046875 C-56.25625 82.15441406 -55.6375 82.07835937 -55 82 C-54.8141333 82.66418945 -54.6282666 83.32837891 -54.43676758 84.01269531 C-47.01532814 113.02819558 -47.01532814 113.02819558 -29 136 C-29.35396851 135.25447876 -29.35396851 135.25447876 -29.71508789 134.49389648 C-30.04758545 133.79337158 -30.38008301 133.09284668 -30.72265625 132.37109375 C-31.09293945 131.59113037 -31.46322266 130.81116699 -31.84472656 130.00756836 C-32.66507549 128.27625056 -33.48339511 126.54396992 -34.29980469 124.81079102 C-36.1587966 120.86605661 -38.02293079 116.92817256 -39.98046875 113.03125 C-47.28519833 98.34089026 -53.68185637 80.76779272 -49.265625 64.25390625 C-48.32609835 62.03215675 -47.25554043 60.05780269 -46 58 C-45.08241663 56.31299828 -44.16574632 54.62549962 -43.25 52.9375 C-42.50387564 51.62279292 -41.75532777 50.30944118 -41 49 C-40.34 49 -39.68 49 -39 49 C-38.88068115 48.4112207 -38.7613623 47.82244141 -38.63842773 47.21582031 C-37.58460072 43.55825475 -35.27509451 40.80356662 -33.0625 37.75 C-32.60681641 37.1003125 -32.15113281 36.450625 -31.68164062 35.78125 C-30.50907797 34.14687276 -29.25988848 32.56804756 -28 31 C-27.34 31 -26.68 31 -26 31 C-25.77441406 30.29230469 -25.54882812 29.58460937 -25.31640625 28.85546875 C-23.70436549 25.35872752 -21.5826116 23.1022364 -18.9375 20.3125 C-15.58041094 16.93079316 -15.58041094 16.93079316 -13 13 C-12.34 13 -11.68 13 -11 13 C-11 12.34 -11 11.68 -11 11 C-10.34 11 -9.68 11 -9 11 C-8.74476563 10.41734375 -8.48953125 9.8346875 -8.2265625 9.234375 C-6.88258913 6.78611777 -5.38189704 5.18256752 -3.375 3.25 C-2.42753906 2.32960938 -2.42753906 2.32960938 -1.4609375 1.390625 C-0.97882813 0.93171875 -0.49671875 0.4728125 0 0 Z M-66 173 C-64.56829815 178.72680741 -61.67973031 182.53059305 -58 187 C-57.37609375 187.75925781 -56.7521875 188.51851562 -56.109375 189.30078125 C-51.8556522 194.28299595 -47.42158031 198.32313038 -42 202 C-41.67 201.34 -41.34 200.68 -41 200 C-41.66 200 -42.32 200 -43 200 C-43.226875 199.443125 -43.45375 198.88625 -43.6875 198.3125 C-45.37367031 195.34162851 -47.55387116 193.39177042 -50 191 C-56.64637002 183.70725995 -56.64637002 183.70725995 -58 181 C-58.66 181 -59.32 181 -60 181 C-60.37125 180.13375 -60.37125 180.13375 -60.75 179.25 C-62.16683317 176.6997003 -63.87627537 174.98214299 -66 173 Z " fill="#F9F9F9" transform="translate(240,87)"/>
<path d="M0 0 C2.3125 0.375 2.3125 0.375 5 2 C6.37574553 5.24589962 7.22092044 8.56698276 8 12 C7.34 12 6.68 12 6 12 C5.67 10.68 5.34 9.36 5 8 C4.01 8.495 4.01 8.495 3 9 C3 13.62 3 18.24 3 23 C0.68705447 19.53058171 0.42221971 17.23349085 -0.125 13.125 C-0.29257813 11.91070312 -0.46015625 10.69640625 -0.6328125 9.4453125 C-0.93813517 6.58047636 -1.1590867 3.87416647 -1 1 C-0.67 0.67 -0.34 0.34 0 0 Z " fill="#ADA8A8" transform="translate(168,254)"/>
<path d="M0 0 C0.99 0 1.98 0 3 0 C3.09038099 5.15171623 2.84681133 9.91913204 2 15 C1.67 15 1.34 15 1 15 C1 12.03 1 9.06 1 6 C-1.94091587 6.18415432 -1.94091587 6.18415432 -5 7 C-6.43637698 8.95163118 -6.43637698 8.95163118 -7 11 C-7.66 10.34 -8.32 9.68 -9 9 C-7.37660195 7.29115995 -5.70680947 5.62553283 -4 4 C-3.34 4 -2.68 4 -2 4 C-2 3.34 -2 2.68 -2 2 C-1.34 2 -0.68 2 0 2 C0 1.34 0 0.68 0 0 Z " fill="#AFAAAA" transform="translate(310,260)"/>
<path d="M0 0 C3.42619995 3.42619995 2.96458409 8.01772937 3.1328125 12.68359375 C3.1192287 19.21060759 3.05275729 25.55186161 2 32 C1.67 32 1.34 32 1 32 C0.82940635 28.54184898 0.66426561 25.08345693 0.5 21.625 C0.45230469 20.65949219 0.40460938 19.69398438 0.35546875 18.69921875 C0.06237698 12.46055108 -0.06171592 6.24530778 0 0 Z " fill="#A9A6A5" transform="translate(284,143)"/>
<path d="M0 0 C0.33 0.99 0.66 1.98 1 3 C-0.375 4.5 -0.375 4.5 -2 6 C-2.66 6 -3.32 6 -4 6 C-4.1546875 6.9590625 -4.1546875 6.9590625 -4.3125 7.9375 C-4.539375 8.618125 -4.76625 9.29875 -5 10 C-5.99 10.33 -6.98 10.66 -8 11 C-8.433125 12.3303125 -8.433125 12.3303125 -8.875 13.6875 C-10.27193683 17.80070288 -12.01622969 19.86704117 -15 23 C-15.66 23 -16.32 23 -17 23 C-15.5360077 19.93124691 -13.85990364 17.09565257 -12 14.25 C-11.484375 13.45078125 -10.96875 12.6515625 -10.4375 11.828125 C-9.963125 11.22484375 -9.48875 10.6215625 -9 10 C-8.34 10 -7.68 10 -7 10 C-6.773125 9.278125 -6.54625 8.55625 -6.3125 7.8125 C-4.75168987 4.46790687 -2.6968713 2.48396041 0 0 Z " fill="#B8B5B4" transform="translate(221,108)"/>
<path d="M0 0 C0.66 0 1.32 0 2 0 C3.38740074 3.85389095 2.57479122 7.00839431 2 11 C1.75497126 13.97630932 1.59337989 16.95533889 1.4375 19.9375 C1.39431641 20.71673828 1.35113281 21.49597656 1.30664062 22.29882812 C1.20171923 24.19907117 1.1004755 26.09951669 1 28 C0.67 28 0.34 28 0 28 C0 18.76 0 9.52 0 0 Z " fill="#E0D4D3" transform="translate(247,324)"/>
<path d="M0 0 C2.125 0.9375 2.125 0.9375 4 2 C-2.73281213 3.700773 -8.13252891 4.10765663 -15 3 C-15 2.67 -15 2.34 -15 2 C-14.08476562 1.93941406 -13.16953125 1.87882812 -12.2265625 1.81640625 C-10.44378906 1.69072266 -10.44378906 1.69072266 -8.625 1.5625 C-7.44164062 1.48128906 -6.25828125 1.40007812 -5.0390625 1.31640625 C-2.08481099 1.18915064 -2.08481099 1.18915064 0 0 Z " fill="#BEBBBB" transform="translate(222,330)"/>
<path d="M0 0 C0.66 0.33 1.32 0.66 2 1 C1.34 2.65 0.68 4.3 0 6 C3.72614153 4.88145414 3.72614153 4.88145414 6 2 C6 2.99 6 3.98 6 5 C5.34 5 4.68 5 4 5 C4 5.99 4 6.98 4 8 C3.01 8.33 2.02 8.66 1 9 C0.34 8.34 -0.32 7.68 -1 7 C-0.625 3.375 -0.625 3.375 0 0 Z " fill="#B7AEAC" transform="translate(261,230)"/>
<path d="M0 0 C1.32 0.33 2.64 0.66 4 1 C4.33 2.32 4.66 3.64 5 5 C3.35 5.33 1.7 5.66 0 6 C0 4.02 0 2.04 0 0 Z " fill="#C3BFBD" transform="translate(294,161)"/>
<path d="M0 0 C2.77042109 2.77042109 2.39796106 4.76533805 2.625 8.625 C2.69976562 9.81351563 2.77453125 11.00203125 2.8515625 12.2265625 C2.92503906 13.59941406 2.92503906 13.59941406 3 15 C0.03090402 11.72698081 -0.34354794 9.61934238 -0.1875 5.25 C-0.16042969 4.26515625 -0.13335937 3.2803125 -0.10546875 2.265625 C-0.07066406 1.51796875 -0.03585937 0.7703125 0 0 Z " fill="#9C9493" transform="translate(284,143)"/>
<path d="M0 0 C0.66 0 1.32 0 2 0 C1.49259538 4.39750672 -1.08293314 6.86948922 -4 10 C-4.66 10 -5.32 10 -6 10 C-4.34643078 6.41726669 -2.32019297 3.19026533 0 0 Z " fill="#C4C1C1" transform="translate(210,121)"/>
<path d="M0 0 C0.33 0.66 0.66 1.32 1 2 C1.66 2 2.32 2 3 2 C3.33 1.34 3.66 0.68 4 0 C4.33 0.99 4.66 1.98 5 3 C4.01 3.33 3.02 3.66 2 4 C2.33 5.98 2.66 7.96 3 10 C0.70366176 6.55549263 0.45983515 4.06187717 0 0 Z " fill="#AEABAA" transform="translate(193,179)"/>
<path d="M0 0 C0.68707555 2.49064888 1 4.37886292 1 7 C-1 8.6875 -1 8.6875 -3 10 C-3 6.13304322 -1.58090029 3.4911548 0 0 Z " fill="#BEB3B4" transform="translate(282,205)"/>
<path d="M0 0 C3.41158256 1.13719419 4.11854601 2.04342944 6 5 C6 5.66 6 6.32 6 7 C3.5625 6.3125 3.5625 6.3125 1 5 C0.1875 2.375 0.1875 2.375 0 0 Z " fill="#9A9191" transform="translate(199,287)"/>
</svg>
