<?xml version="1.0" encoding="UTF-8"?>
<svg version="1.1" xmlns="http://www.w3.org/2000/svg" width="500" height="500">
<path d="M0 0 C9.01929639 3.9404693 13.67409441 11.95804482 17.46875 20.65625 C20.38076218 28.65379353 23.25949564 37.8072999 22.82421875 46.37890625 C23.91476563 45.78142578 23.91476563 45.78142578 25.02734375 45.171875 C41.31024832 36.59203682 56.93904311 35.02896008 74.44921875 40.22265625 C78.73360878 41.69045654 82.76013463 43.38251405 86.82421875 45.37890625 C86.98277344 44.37472656 87.14132812 43.37054688 87.3046875 42.3359375 C89.96762886 26.38182047 94.37325821 10.96097566 108.01171875 1.06640625 C113.10317558 -1.64534793 118.57215096 -1.59383615 124.03125 0.0390625 C132.75408795 3.89178825 137.43195062 11.79578488 140.82421875 20.37890625 C144.4229382 31.80302906 146.01959151 42.62244495 146.01171875 54.56640625 C146.01236328 55.57711182 146.01300781 56.58781738 146.01367188 57.62915039 C145.9613189 65.05315941 145.38819471 72.1036252 143.82421875 79.37890625 C144.69820313 79.77142578 144.69820313 79.77142578 145.58984375 80.171875 C157.24953729 86.4705556 163.93577438 100.92052586 167.85546875 112.91796875 C172.26530119 128.67245076 172.31968644 146.26962714 164.4140625 161.0078125 C163.5391693 162.48708875 162.63236826 163.94848822 161.6796875 165.37890625 C160.51594716 168.09961426 160.985602 169.57627515 161.82421875 172.37890625 C162.41928797 173.82905241 163.04620297 175.26641445 163.69921875 176.69140625 C171.54131335 196.06767649 171.20966686 219.8079166 163.26171875 239.06640625 C162.07371032 241.68298556 160.88813664 244.25956711 159.53125 246.79296875 C158.51920716 250.4944735 159.64158794 252.5517378 161.07421875 256.06640625 C165.03850744 265.89917848 166.15340737 275.04402786 166.07421875 285.62890625 C166.08195313 286.67820312 166.0896875 287.7275 166.09765625 288.80859375 C166.09507812 289.82695312 166.0925 290.8453125 166.08984375 291.89453125 C166.08758789 292.80493164 166.08533203 293.71533203 166.08300781 294.65332031 C165.82421875 297.37890625 165.82421875 297.37890625 163.82421875 303.37890625 C157.22421875 303.37890625 150.62421875 303.37890625 143.82421875 303.37890625 C144.60546875 299.99348958 145.38671875 296.60807292 146.16796875 293.22265625 C148.55365957 279.24932428 144.8362362 263.56876633 137.671875 251.42578125 C136.47759422 248.54189586 136.46052626 246.47424562 136.82421875 243.37890625 C138.43359375 240.9140625 138.43359375 240.9140625 140.57421875 238.44140625 C149.56614931 226.57971062 150.18972423 211.73429539 148.82421875 197.37890625 C147.64472428 189.06916563 145.11227384 182.14622892 140.1015625 175.36328125 C137.8838931 171.91809454 137.68991946 169.47503448 137.82421875 165.37890625 C139.44921875 162.31640625 139.44921875 162.31640625 141.82421875 159.37890625 C149.32660641 149.92635666 151.67200469 139.34039519 150.82421875 127.37890625 C148.56676887 113.58535422 142.58177838 102.19831744 131.44140625 93.5234375 C122.16364603 87.48245215 112.65159299 85.89295788 101.734375 86.6640625 C97.96138516 86.29436014 96.47801117 85.02805105 93.82421875 82.37890625 C92.77734375 80.5546875 92.77734375 80.5546875 92.07421875 78.69140625 C86.79016131 67.43133147 76.42046832 62.47367459 65.44921875 58.00390625 C51.19502002 55.54628578 40.20621282 58.51919838 28.3359375 66.4609375 C22.5168434 70.90444481 18.58818033 75.98499723 15.74609375 82.71484375 C14.82421875 84.37890625 14.82421875 84.37890625 11.82421875 86.37890625 C9.0390625 86.50390625 9.0390625 86.50390625 5.76171875 86.37890625 C-6.97630132 86.22356454 -17.83415203 89.44629825 -27.296875 98.31640625 C-37.38494452 109.3902123 -41.18797918 122.583093 -40.55078125 137.296875 C-39.91043586 145.91552376 -37.18597132 152.32050421 -31.92578125 159.12890625 C-27.57804652 164.81190034 -27.57804652 164.81190034 -27.30078125 168.50390625 C-28.29147062 172.89124491 -29.98934681 175.26690976 -32.578125 178.859375 C-40.16725546 190.82756363 -40.45781825 207.81927316 -37.8984375 221.37890625 C-36.29517099 228.03462884 -34.74502494 234.03120588 -29.92578125 239.06640625 C-27.48500089 241.69350572 -27.18002384 242.35576484 -26.48828125 246.12890625 C-26.83879576 250.60865267 -28.86413152 254.21880352 -30.796875 258.2109375 C-37.10042791 272.69303781 -37.99719723 288.09324234 -34.17578125 303.37890625 C-40.77578125 303.37890625 -47.37578125 303.37890625 -54.17578125 303.37890625 C-58.38079752 286.55884118 -56.75658534 268.60648089 -49.84765625 252.7109375 C-48.51281884 248.07780998 -50.46115753 244.55099957 -52.55078125 240.44140625 C-61.20558421 221.42592612 -60.93160579 197.0116044 -54.17578125 177.37890625 C-53.42822356 175.77427606 -52.64483215 174.18494566 -51.80078125 172.62890625 C-49.80861319 169.58036728 -49.80861319 169.58036728 -50.921875 166.9609375 C-52.09605539 164.54307694 -53.33051622 162.17813251 -54.61328125 159.81640625 C-61.98816164 144.93573043 -62.35276118 127.68388477 -57.4921875 111.93359375 C-53.25239572 100.48489786 -46.98767761 87.38107422 -36.30859375 80.54296875 C-35.60476562 79.82882813 -34.9009375 79.1146875 -34.17578125 78.37890625 C-34.26055639 75.25398961 -34.26055639 75.25398961 -34.75976562 72.95751953 C-35.59057091 67.80789191 -35.40101989 62.56013074 -35.41601562 57.35473633 C-35.42564381 55.34509354 -35.45680723 53.33559125 -35.48828125 51.32617188 C-35.55630322 33.98907346 -32.5972027 17.55716325 -20.5546875 4.4375 C-14.38655804 -0.90010957 -7.8016441 -2.22704024 0 0 Z M-8.17578125 18.37890625 C-11.87735375 25.25824381 -15.07711207 31.60261143 -16.17578125 39.37890625 C-16.34013672 40.41724609 -16.34013672 40.41724609 -16.5078125 41.4765625 C-17.77560339 50.79059958 -17.44578578 60.09577791 -16.17578125 69.37890625 C-13.23500152 69.15107826 -10.3003501 68.8977455 -7.36328125 68.62890625 C-6.52990234 68.56703125 -5.69652344 68.50515625 -4.83789062 68.44140625 C-0.09330088 68.04748087 -0.09330088 68.04748087 3.875 65.65625 C8.40915239 54.77801609 3.5468417 37.05408504 -0.67578125 26.50390625 C-2.10067913 23.22481434 -3.35850896 20.64171538 -6.17578125 18.37890625 C-6.83578125 18.37890625 -7.49578125 18.37890625 -8.17578125 18.37890625 Z M115.82421875 18.37890625 C106.0146279 31.68725118 104.4235389 48.3199489 105.82421875 64.37890625 C107.42576623 67.48803937 107.42576623 67.48803937 109.70361328 67.90307617 C110.81905518 68.00519409 110.81905518 68.00519409 111.95703125 68.109375 C112.76269531 68.18994141 113.56835938 68.27050781 114.3984375 68.35351562 C115.24019531 68.42376953 116.08195313 68.49402344 116.94921875 68.56640625 C117.79871094 68.64826172 118.64820313 68.73011719 119.5234375 68.81445312 C121.62255715 69.01493084 123.72327699 69.19852236 125.82421875 69.37890625 C130.15251516 56.39401703 127.74604756 36.71733719 121.89648438 24.43017578 C119.80558056 20.36383175 119.80558056 20.36383175 115.82421875 18.37890625 Z " fill="#000000" transform="translate(195.17578125,148.62109375)"/>
<path d="M0 0 C8.84465491 6.60773719 15.60476212 14.58903002 17.34765625 25.75390625 C18.32346977 36.16791616 15.75331165 44.71597019 9.16015625 52.875 C0.6351559 61.71233873 -10.10062288 65.8423971 -22.25390625 66.25 C-24.25360473 66.25098024 -26.25347526 66.2517156 -28.25292969 66.22045898 C-30.28272698 66.19132899 -32.30992328 66.19993473 -34.33984375 66.21289062 C-48.12401188 66.12487776 -59.27875211 62.95008565 -69.52734375 53.37890625 C-76.59442174 45.87846971 -78.36773425 37.12802673 -78.125 27.11328125 C-77.48572174 18.06318528 -72.32889537 9.14559914 -65.578125 3.203125 C-46.41811001 -11.2154664 -20.45908915 -13.27345784 0 0 Z M-58.65234375 15.75390625 C-63.61059101 22.34503782 -65.52460617 27.46741321 -64.65234375 35.75390625 C-62.80672292 41.4575417 -58.54839036 45.51073511 -53.65234375 48.75390625 C-45.87223954 52.49976267 -38.70133246 53.37978093 -30.15234375 53.25390625 C-28.57646484 53.27710938 -28.57646484 53.27710938 -26.96875 53.30078125 C-17.50946726 53.254011 -8.12513807 51.25507406 -1.09375 44.51171875 C2.6794106 39.91030338 4.75637993 35.12692623 4.34765625 29.12890625 C2.9985911 21.51065598 -1.5226701 15.33480115 -7.65234375 10.75390625 C-24.2645969 2.20542585 -44.8189479 1.43057763 -58.65234375 15.75390625 Z " fill="#000000" transform="translate(280.65234375,283.24609375)"/>
<path d="M0 0 C3.07469523 1.70251719 5.40613254 3.81226508 7 7 C7.57425085 11.70697417 7.45554552 15.12144792 5.25 19.375 C2.35265298 22.75523819 0.46010808 24.54574415 -3.8125 25.875 C-7.95411428 26.03741625 -10.38415362 24.97848198 -14 23 C-16.51745306 20.65037715 -16.98794225 19.04564721 -17.875 15.6875 C-18.05824984 10.28162972 -16.4648071 6.68674756 -12.9375 2.625 C-8.99258857 -0.68363539 -4.98091481 -0.76886604 0 0 Z " fill="#000000" transform="translate(197,277)"/>
<path d="M0 0 C3.71194997 1.64975554 5.85325399 3.56520639 8 7 C9.24859484 10.74578453 9.62401883 14.11640044 9 18 C6.48331929 22.38389543 4.47562255 24.19883406 -0.375 25.625 C-4.45996675 26.27750717 -7.08439446 25.82540898 -10.48828125 23.4609375 C-13.84154344 20.22031719 -15.77048573 16.54339286 -16.19140625 11.87890625 C-15.94997469 8.00868511 -15.02981613 6.03593226 -12.5625 3.0625 C-8.47109405 -0.23058283 -5.1574957 -0.55542261 0 0 Z " fill="#000001" transform="translate(312,277)"/>
<path d="M0 0 C3.27394864 0.47456259 5.26161459 0.47998152 8.625 -0.0625 C11.75 -0.4375 11.75 -0.4375 13.75 0.5625 C15.37530665 3.81311329 14.6671051 6.13864096 13.75 9.5625 C13.069375 10.036875 12.38875 10.51125 11.6875 11 C11.048125 11.515625 10.40875 12.03125 9.75 12.5625 C9.57521666 14.62931303 9.69000039 16.61690858 9.78515625 18.6875 C9.75 20.5625 9.75 20.5625 8.625 22.5625 C5.85184376 24.04151666 3.83815875 23.94851984 0.75 23.5625 C-1.125 22.5625 -1.125 22.5625 -2.25 20.5625 C-2.18530365 18.55691324 -2.1185356 16.55125027 -2.0234375 14.546875 C-2.39715023 11.27366697 -4.94584984 9.75144266 -7.25 7.5625 C-7.75 4.375 -7.75 4.375 -7.25 1.5625 C-3.94005531 -0.6441298 -3.65190187 -0.61929105 0 0 Z " fill="#000001" transform="translate(246.25,302.4375)"/>
<path d="" fill="#000000" transform="translate(0,0)"/>
</svg>
